<?xml version="1.0" encoding="UTF-8" standalone="no"?>
<svg
   xmlns:dc="http://purl.org/dc/elements/1.1/"
   xmlns:cc="http://creativecommons.org/ns#"
   xmlns:rdf="http://www.w3.org/1999/02/22-rdf-syntax-ns#"
   xmlns:svg="http://www.w3.org/2000/svg"
   xmlns="http://www.w3.org/2000/svg"
   width="11.49291mm"
   height="11.209466mm"
   viewBox="0 0 11.49291 11.209466"
   version="1.1"
   id="svg221">
  <defs
     id="defs215" />
  <metadata
     id="metadata218">
    <rdf:RDF>
      <cc:Work
         rdf:about="">
        <dc:format>image/svg+xml</dc:format>
        <dc:type
           rdf:resource="http://purl.org/dc/dcmitype/StillImage" />
        <dc:title></dc:title>
      </cc:Work>
    </rdf:RDF>
  </metadata>
  <g
     id="layer1"
     transform="translate(-28.27128,-61.67503)">
    <path
       d="m 34.01732,61.67503 c -3.17288,0 -5.74604,2.572808 -5.74604,5.74675 0,2.538589 1.64641,4.692647 3.92994,5.452887 0.28752,0.0526 0.39229,-0.12488 0.39229,-0.27728 0,-0.13653 -0.005,-0.49777 -0.008,-0.9772 -1.59843,0.34714 -1.93569,-0.77046 -1.93569,-0.77046 -0.26141,-0.663933 -0.63817,-0.840674 -0.63817,-0.840674 -0.52176,-0.356306 0.0395,-0.34925 0.0395,-0.34925 0.57679,0.04057 0.88018,0.592314 0.88018,0.592314 0.51258,0.87806 1.34514,0.62442 1.67252,0.47731 0.0522,-0.371124 0.20073,-0.624419 0.36477,-0.767999 -1.276,-0.145345 -2.61761,-0.638175 -2.61761,-2.840214 0,-0.627592 0.22401,-1.140178 0.59161,-1.541992 -0.0593,-0.145345 -0.25647,-0.729545 0.0564,-1.520825 0,0 0.48225,-0.154517 1.58009,0.588786 0.45826,-0.127353 0.95003,-0.190853 1.43863,-0.193322 0.48824,0.0025 0.97966,0.06597 1.43863,0.193322 1.09714,-0.743303 1.57868,-0.588786 1.57868,-0.588786 0.31362,0.79128 0.11642,1.37548 0.0575,1.520825 0.3683,0.401814 0.59055,0.9144 0.59055,1.541992 0,2.207683 -1.34373,2.693458 -2.62361,2.835628 0.20603,0.177447 0.38982,0.528108 0.38982,1.064335 0,0.76799 -0.007,1.38782 -0.007,1.57621 0,0.15381 0.10371,0.33267 0.39511,0.27657 2.28176,-0.76164 3.92677,-2.91394 3.92677,-5.452177 0,-3.173942 -2.57316,-5.74675 -5.74711,-5.74675"
       style="fill:#1b1817;fill-opacity:1;fill-rule:evenodd;stroke:none;stroke-width:0.0352778"
       id="path24" />
  </g>
</svg>
