<?xml version="1.0" encoding="UTF-8" standalone="no"?>
<svg
   xmlns:dc="http://purl.org/dc/elements/1.1/"
   xmlns:cc="http://creativecommons.org/ns#"
   xmlns:rdf="http://www.w3.org/1999/02/22-rdf-syntax-ns#"
   xmlns:svg="http://www.w3.org/2000/svg"
   xmlns="http://www.w3.org/2000/svg"
   version="1.1"
   id="svg53"
   width="266.66666"
   height="266.66666"
   viewBox="0 0 266.66666 266.66666">
  <metadata
     id="metadata59">
    <rdf:RDF>
      <cc:Work
         rdf:about="">
        <dc:format>image/svg+xml</dc:format>
        <dc:type
           rdf:resource="http://purl.org/dc/dcmitype/StillImage" />
        <dc:title></dc:title>
      </cc:Work>
    </rdf:RDF>
  </metadata>
  <defs
     id="defs57" />
  <g
     id="g61">
    <rect
       style="opacity:1;fill:#7451eb;fill-opacity:1;fill-rule:evenodd"
       id="rect65"
       width="266.66666"
       height="266.66666"
       x="1.2175891e-05"
       y="1.2971917e-06"
       ry="18.866213" />
    <path
       id="path894"
       style="opacity:1;fill:#ffffff;fill-opacity:1;stroke-width:2.82755"
       d="m 58.837421,215.16898 c 41.023565,30.53315 97.990529,24.13565 132.320779,-13.85257 34.33,-37.98817 34.51735,-95.96174 0.4336,-134.173832 C 172.75959,46.029059 145.90685,33.953314 117.71484,33.919922 96.610456,33.895074 76.045571,40.628733 58.996094,53.146484 l 33.127572,39.703519 c 7.945964,-5.872974 14.974264,-7.251204 24.809924,-7.310941 13.40899,-0.08139 26.21057,5.6582 35.16797,15.767578 16.07161,18.13675 15.98385,45.6544 -0.20312,63.68555 -16.18706,18.03097 -39.95326,23.98753 -59.295243,9.49382 z" />
  </g>
</svg>
